HIERARCHY
ROOT Hips
{
  OFFSET -43.3411 73.6987 0
  CHANNELS 6 Xposition Yposition Zposition Zrotation Xrotation Yrotation
  JOINT Bip01_Pelvis
  {
    OFFSET 0 0 0
    CHANNELS 6 Xposition Yposition Zposition Zrotation Xrotation Yrotation
    JOINT BN_Tail_01
    {
      OFFSET -18.6385 -9.591 -2.032e-005
      CHANNELS 6 Xposition Yposition Zposition Zrotation Xrotation Yrotation
      JOINT BN_Tail_02
      {
        OFFSET 20.9743 0 0
        CHANNELS 6 Xposition Yposition Zposition Zrotation Xrotation Yrotation
        JOINT BN_Tail_03
        {
          OFFSET 20.3015 0 0
          CHANNELS 6 Xposition Yposition Zposition Zrotation Xrotation Yrotation
          JOINT BN_Tail_04
          {
            OFFSET 21.6394 -9.91821e-005 0
            CHANNELS 6 Xposition Yposition Zposition Zrotation Xrotation Yrotation
            End Site
            {
              OFFSET 0 0 0
            }
          }
        }
      }
    }
    JOINT Bip01_Spine
    {
      OFFSET 22.1878 -0.659386 3.048e-005
      CHANNELS 6 Xposition Yposition Zposition Zrotation Xrotation Yrotation
      JOINT Bip01_R_Thigh
      {
        OFFSET -22.1873 0.677109 -17.1024
        CHANNELS 6 Xposition Yposition Zposition Zrotation Xrotation Yrotation
        JOINT Bip01_R_Calf
        {
          OFFSET 34.2647 0 0
          CHANNELS 6 Xposition Yposition Zposition Zrotation Xrotation Yrotation
          JOINT Bip01_R_HorseLink
          {
            OFFSET 20.4429 0 0
            CHANNELS 6 Xposition Yposition Zposition Zrotation Xrotation Yrotation
            JOINT Bip01_R_Foot
            {
              OFFSET 16.5673 0 0
              CHANNELS 6 Xposition Yposition Zposition Zrotation Xrotation Yrotation
              JOINT Bip01_R_Toe0
              {
                OFFSET 9.18784 6.94841 0
                CHANNELS 6 Xposition Yposition Zposition Zrotation Xrotation Yrotation
                JOINT Bip01_R_Toe0Nub
                {
                  OFFSET 1.01907 0 0
                  CHANNELS 6 Xposition Yposition Zposition Zrotation Xrotation Yrotation
                  End Site
                  {
                    OFFSET 0 0 0
                  }
                }
              }
            }
          }
        }
      }
      JOINT Bip01_L_Thigh
      {
        OFFSET -22.1873 0.67701 17.1024
        CHANNELS 6 Xposition Yposition Zposition Zrotation Xrotation Yrotation
        JOINT Bip01_L_Calf
        {
          OFFSET 34.2647 0 0
          CHANNELS 6 Xposition Yposition Zposition Zrotation Xrotation Yrotation
          JOINT Bip01_L_HorseLink
          {
            OFFSET 20.4429 0 0
            CHANNELS 6 Xposition Yposition Zposition Zrotation Xrotation Yrotation
            JOINT Bip01_L_Foot
            {
              OFFSET 16.5673 0 0
              CHANNELS 6 Xposition Yposition Zposition Zrotation Xrotation Yrotation
              JOINT Bip01_L_Toe0
              {
                OFFSET 9.18784 6.9484 1.14441e-005
                CHANNELS 6 Xposition Yposition Zposition Zrotation Xrotation Yrotation
                JOINT Bip01_L_Toe0Nub
                {
                  OFFSET 1.01907 0 0
                  CHANNELS 6 Xposition Yposition Zposition Zrotation Xrotation Yrotation
                  End Site
                  {
                    OFFSET 0 0 0
                  }
                }
              }
            }
          }
        }
      }
      JOINT Bip01_Spine1
      {
        OFFSET 39.3372 -0.0249863 0
        CHANNELS 6 Xposition Yposition Zposition Zrotation Xrotation Yrotation
        JOINT Bip01_Neck
        {
          OFFSET 34.2837 -15.5934 -4.318e-005
          CHANNELS 6 Xposition Yposition Zposition Zrotation Xrotation Yrotation
          JOINT Bip01_R_Clavicle
          {
            OFFSET -17.9452 -11.3131 -6.19287
            CHANNELS 6 Xposition Yposition Zposition Zrotation Xrotation Yrotation
            JOINT Bip01_R_UpperArm
            {
              OFFSET 17.4439 1.52588e-005 -2.28882e-005
              CHANNELS 6 Xposition Yposition Zposition Zrotation Xrotation Yrotation
              JOINT Bip01_R_Forearm
              {
                OFFSET 30.6251 1.14441e-005 0
                CHANNELS 6 Xposition Yposition Zposition Zrotation Xrotation Yrotation
                JOINT Bip01_R_Hand
                {
                  OFFSET 31.2039 0 0
                  CHANNELS 6 Xposition Yposition Zposition Zrotation Xrotation Yrotation
                  JOINT Bip01_R_Finger0
                  {
                    OFFSET 22.1039 0.255862 -0.37902
                    CHANNELS 6 Xposition Yposition Zposition Zrotation Xrotation Yrotation
                    JOINT Bip01_R_Finger0Nub
                    {
                      OFFSET 12.0552 0 0
                      CHANNELS 6 Xposition Yposition Zposition Zrotation Xrotation Yrotation
                      End Site
                      {
                        OFFSET 0 0 0
                      }
                    }
                  }
                }
              }
            }
          }
          JOINT Bip01_L_Clavicle
          {
            OFFSET -17.9452 -11.3132 6.19281
            CHANNELS 6 Xposition Yposition Zposition Zrotation Xrotation Yrotation
            JOINT Bip01_L_UpperArm
            {
              OFFSET 17.444 0 1.14441e-005
              CHANNELS 6 Xposition Yposition Zposition Zrotation Xrotation Yrotation
              JOINT Bip01_L_Forearm
              {
                OFFSET 30.6251 0 0
                CHANNELS 6 Xposition Yposition Zposition Zrotation Xrotation Yrotation
                JOINT Bip01_L_Hand
                {
                  OFFSET 31.204 0 0
                  CHANNELS 6 Xposition Yposition Zposition Zrotation Xrotation Yrotation
                  JOINT Bip01_L_Finger0
                  {
                    OFFSET 22.1039 0.255856 0.379024
                    CHANNELS 6 Xposition Yposition Zposition Zrotation Xrotation Yrotation
                    JOINT Bip01_L_Finger0Nub
                    {
                      OFFSET 12.0552 0 0
                      CHANNELS 6 Xposition Yposition Zposition Zrotation Xrotation Yrotation
                      End Site
                      {
                        OFFSET 0 0 0
                      }
                    }
                  }
                }
              }
            }
          }
          JOINT Bip01_Neck1
          {
            OFFSET 14.9359 -0.0106278 0
            CHANNELS 6 Xposition Yposition Zposition Zrotation Xrotation Yrotation
            JOINT Bip01_Head
            {
              OFFSET 14.3578 0.505501 0
              CHANNELS 6 Xposition Yposition Zposition Zrotation Xrotation Yrotation
              JOINT BN_Ear_L_01
              {
                OFFSET 3.76994 -2.35629 12.3444
                CHANNELS 6 Xposition Yposition Zposition Zrotation Xrotation Yrotation
                End Site
                {
                  OFFSET 0 0 0
                }
              }
              JOINT BN_Ear_R_01
              {
                OFFSET 3.76995 -2.35622 -12.3442
                CHANNELS 6 Xposition Yposition Zposition Zrotation Xrotation Yrotation
                End Site
                {
                  OFFSET 0 0 0
                }
              }
              JOINT BN_Mouth_01
              {
                OFFSET 11.8395 10.8645 1.27e-005
                CHANNELS 6 Xposition Yposition Zposition Zrotation Xrotation Yrotation
                JOINT BN_Tongue_01
                {
                  OFFSET 9.73752 3.21674 1.016e-005
                  CHANNELS 6 Xposition Yposition Zposition Zrotation Xrotation Yrotation
                  JOINT BN_Tongue_02
                  {
                    OFFSET 9.04304 0.053505 0
                    CHANNELS 6 Xposition Yposition Zposition Zrotation Xrotation Yrotation
                    End Site
                    {
                      OFFSET 0 0 0
                    }
                  }
                }
                JOINT BN_Beard_01
                {
                  OFFSET 6.93466 -0.751793 0
                  CHANNELS 6 Xposition Yposition Zposition Zrotation Xrotation Yrotation
                  JOINT BN_Beard_02
                  {
                    OFFSET 13.0965 1.52588e-005 0
                    CHANNELS 6 Xposition Yposition Zposition Zrotation Xrotation Yrotation
                    End Site
                    {
                      OFFSET 0 0 0
                    }
                  }
                }
              }
              JOINT Bip01_HeadNub
              {
                OFFSET 25.6158 0 0
                CHANNELS 6 Xposition Yposition Zposition Zrotation Xrotation Yrotation
                End Site
                {
                  OFFSET 0 0 0
                }
              }
            }
          }
        }
      }
    }
  }
}
MOTION
Frames:	4
Frame Time:	0.0333333
-111.732 47.201 26.1368 113.906 -58.1521 -161.16 -3.8147e-006 4.76837e-007 0 -89.5133 16.6198 -69.5209 -18.6385 -9.591 -4.76837e-007 -57.334 1.32597 164.597 20.9743 7.6294e-006 -0.00129557 -32.2461 21.6864 16.8175 20.3015 -7.62938e-006 -0.000929833 -39.4733 9.27646 7.13346 21.6394 1.72768e-011 -0.000833511 -57.6539 7.07917 20.8066 20.1039 5.72203 7.5139 42.0531 -15.293 8.95835 -15.2113 15.3849 -23.9749 -134.601 -10.6654 -158.06 34.2647 -4.26326e-014 -7.10543e-015 -129.109 -7.1478e-006 7.86543e-006 20.4429 -1.56597e-013 -3.8147e-006 152.346 -9.42853e-007 -7.12419e-007 16.5673 -7.62939e-006 5.72205e-006 -64.6106 15.1577 4.78332 9.18785 6.94839 8.78361e-008 106.343 -2.86352 0.0815229 1.01907 -2.38419e-007 3.8147e-006 1.25621e-007 -3.94858e-009 5.94037e-008 -20.3504 6.36256 8.61586 -163.892 10.1479 -151.16 34.2647 4.76837e-007 3.8147e-006 -123.218 -1.45805e-005 4.06629e-006 20.4429 1.90735e-006 -3.8147e-006 136.697 -6.50801e-006 -8.42902e-006 16.5673 1.90735e-006 3.8147e-006 -57.5452 13.93 9.43264 9.18784 6.9484 -3.92774e-006 90.006 -0.167302 6.92052e-006 1.01906 2.38419e-007 3.8147e-006 -179.96 -2.10816e-005 -1.08932e-005 39.3362 -0.0241814 -0.000834894 -2.18602 1.09772 4.10564 34.2892 -15.5917 5.04139e-005 20.0217 3.93019 -12.3612 -21.2599 -5.90235 -1.27928 153.121 -32.0955 116.465 17.444 3.8147e-006 7.81597e-013 67.14 67.8539 -125.061 30.6251 -2.27374e-013 1.90735e-006 -76.7991 1.9084e-006 1.12352e-005 31.2039 4.35208e-014 1.42108e-014 -150.184 61.0775 -73.5399 22.1039 0.255855 -0.379039 0.434418 -4.27161 17.1686 12.0552 7.10545e-015 1.66893e-006 179.96 1.68578e-005 -2.24533e-005 -18.6145 -5.05295 10.7907 -173.149 68.4166 -127.652 17.4439 -7.6294e-006 3.8147e-006 87.71 -56.6472 78.5748 30.6251 -4.76838e-007 -4.44089e-016 -133.375 1.18339e-005 -1.14497e-005 31.2039 -3.8147e-006 3.64153e-014 69.5924 -78.5684 -73.9646 22.1039 0.255854 0.379024 2.46031 3.5599 -37.4758 12.0552 -4.24551e-013 3.81469e-006 -1.6142e-007 1.03261e-005 1.04412e-005 14.9354 -0.0106506 0.000170231 -36.7073 1.53608 19.423 14.3578 0.505471 -1.01292e-008 -21.3017 2.40216 -3.72546 3.76991 -2.35629 12.3444 -168.787 1.47728 -48.4302 3.76994 -2.35623 -12.3442 19.1429 16.1193 128.993 11.8394 10.8645 -2.6792e-007 -146.179 -2.90743 -171.474 9.73751 3.21675 1.46313e-008 -2.85748 -3.95322e-007 9.90212e-006 2.55462 -1.10588 -0.153761 4.77834 -2.94618 -1.72235 6.93465 -0.75179 -3.41948e-009 -145.842 55.5738 85.7813 13.0966 -7.6294e-006 -7.10543e-015 59.0569 -65.7375 89.0938 25.6158 2.4869e-014 2.38419e-007 -6.59263e-008 1.08709e-006 -6.07726e-008 
-111.719 47.3486 26.0046 114.969 -57.8268 -160.372 -3.8147e-006 4.76837e-007 0 -90.1102 18.3448 -69.7763 -18.6385 -9.591 -4.76837e-007 -57.0851 1.36198 164.013 20.9743 7.6294e-006 -0.00129557 -33.8173 22.8042 17.7658 20.3015 -7.62938e-006 -0.000929833 -43.0349 11.1213 8.32225 21.6394 1.63389e-011 -0.000833511 -59.1611 6.86006 23.5648 19.9686 6.3664 7.35541 44.0404 -15.4639 9.64686 -14.9783 15.4907 -23.9405 -131.472 -12.1343 -158.923 34.2647 0 0 -128.652 -6.72008e-006 7.90833e-006 20.4429 -1.97176e-013 -3.8147e-006 151.546 -8.80733e-007 -5.62675e-007 16.5673 -7.62939e-006 5.72205e-006 -61.4077 12.1237 5.29838 9.18785 6.94839 8.24157e-008 105.293 -3.0564 0.095939 1.01907 -2.38419e-007 3.8147e-006 1.25621e-007 -3.94858e-009 5.94037e-008 -20.5048 6.36964 8.5593 -163.918 9.74227 -150.476 34.2647 4.76837e-007 3.8147e-006 -123.131 -1.45445e-005 4.10803e-006 20.4429 1.90735e-006 -3.8147e-006 136.791 -8.4084e-006 -6.38289e-006 16.5673 1.90735e-006 3.8147e-006 -57.835 14.1632 9.89645 9.18784 6.9484 -3.93049e-006 90.0059 -0.331364 2.35377e-005 1.01906 2.38418e-007 3.8147e-006 -179.96 -2.10816e-005 -1.08932e-005 39.3367 -0.0241814 -0.000495357 -1.26016 1.13247 4.26995 34.2892 -15.5917 5.04012e-005 21.2976 4.13517 -12.4092 -21.3782 -5.46642 -1.24753 151.833 -32.6698 116.67 17.444 3.8147e-006 7.88702e-013 66.8273 68.2301 -124.489 30.6251 -2.27374e-013 1.90735e-006 -76.3227 1.28326e-006 1.14968e-005 31.2039 5.50672e-014 -1.06581e-014 -151.084 60.7029 -73.4941 22.1039 0.255855 -0.379039 0.434582 -4.27219 17.4945 12.0552 1.77636e-014 1.66893e-006 179.96 1.68577e-005 -2.24534e-005 -18.723 -4.57311 10.8172 -174.746 68.6095 -127.284 17.4439 -7.6294e-006 3.8147e-006 88.7555 -56.0062 79.8436 30.6251 -4.76838e-007 1.55431e-015 -133.252 1.22904e-005 -1.10866e-005 31.2039 -3.8147e-006 3.10862e-014 64.8229 -77.5669 -78.2127 22.1039 0.255854 0.379024 2.44293 3.55943 -37.2172 12.0552 -4.42314e-013 3.81469e-006 -1.6142e-007 1.03261e-005 1.04412e-005 14.9354 -0.0106506 0.000170231 -34.293 2.08697 18.0833 14.3578 0.505471 -9.11038e-009 -22.9609 3.13879 -1.90431 3.76991 -2.35629 12.3444 -168.594 3.40869 -48.8651 3.76994 -2.35623 -12.3442 17.2317 17.8879 128.158 11.8394 10.8645 -3.4772e-007 -146.647 -2.93741 -171.98 9.73751 3.21675 9.76007e-009 -2.85748 -4.48638e-007 9.89779e-006 2.55462 -1.10588 -0.153761 4.77834 -2.94618 -1.72235 6.93465 -0.75179 -2.28102e-009 -140.002 57.8623 86.2896 13.0966 -7.6294e-006 -2.84217e-014 55.2145 -67.6028 86.9295 25.6158 -1.06582e-014 2.38419e-007 -6.59263e-008 1.08709e-006 -6.07726e-008 
-111.706 47.5285 25.8953 116.007 -57.4935 -159.61 -3.8147e-006 4.76837e-007 0 -90.701 20.0637 -70.025 -18.6385 -9.591 -4.76837e-007 -56.8659 1.40129 163.438 20.9743 7.6294e-006 -0.00129557 -35.2585 23.8841 18.6153 20.3015 -7.62938e-006 -0.000929833 -46.5545 12.8985 9.36492 21.6394 1.62927e-011 -0.000833511 -60.5302 6.66469 25.9372 19.8143 7.00188 7.19347 46.0156 -15.6207 10.3276 -14.7507 15.5903 -23.9016 -128.083 -14.0114 -159.991 34.2647 -4.26326e-014 -7.10543e-015 -127.407 -6.11125e-006 8.04063e-006 20.4429 -2.28262e-013 -3.8147e-006 149.286 -7.94164e-007 -3.87809e-007 16.5673 -7.62939e-006 5.72205e-006 -55.8682 8.72079 5.78084 9.18785 6.94839 7.22671e-008 102.621 -3.27042 0.127795 1.01907 -2.38419e-007 3.8147e-006 1.25621e-007 -3.94858e-009 5.94037e-008 -20.6586 6.37957 8.5057 -163.935 9.32947 -149.778 34.2647 4.76837e-007 3.8147e-006 -122.947 -1.45018e-005 4.17345e-006 20.4429 1.90735e-006 -3.8147e-006 136.8 -7.47165e-006 -7.35172e-006 16.5673 1.90735e-006 3.8147e-006 -58.1732 14.4343 10.4353 9.18784 6.9484 -3.93323e-006 90.0058 -0.497064 3.96635e-005 1.01906 2.38418e-007 3.8147e-006 -179.96 -2.10816e-005 -1.08932e-005 39.3371 -0.0241814 -0.000622356 -0.294635 1.20666 4.37938 34.2892 -15.5917 5.03889e-005 22.6037 4.34516 -12.455 -21.4894 -5.01858 -1.22228 150.531 -33.3064 116.906 17.444 3.8147e-006 8.31335e-013 66.5113 68.5516 -123.806 30.6251 -2.27374e-013 1.90735e-006 -75.8963 -7.64175e-006 1.38547e-005 31.2039 4.08563e-014 -7.10542e-015 -151.982 60.3241 -73.4604 22.1039 0.255855 -0.379039 0.43423 -4.27299 17.8559 12.0552 3.19745e-014 1.66893e-006 179.96 1.68577e-005 -2.24534e-005 -18.8255 -4.07988 10.8371 -176.585 68.7052 -126.709 17.4439 -7.6294e-006 3.8147e-006 89.5267 -55.4733 81.1083 30.6251 -4.76838e-007 1.11022e-015 -132.962 1.22017e-005 -1.12693e-005 31.2039 -3.8147e-006 2.44249e-014 59.9572 -76.4337 -82.5261 22.1039 0.255854 0.379024 2.41008 3.57727 -36.9251 12.0552 -4.52972e-013 3.81469e-006 -1.6142e-007 1.03261e-005 1.04412e-005 14.9354 -0.0106506 0.000170231 -31.7747 2.59822 16.6843 14.3578 0.505471 -7.92257e-009 -24.6135 3.82547 -0.189429 3.76991 -2.35629 12.3444 -168.385 5.35783 -49.3117 3.76994 -2.35623 -12.3442 15.3087 19.7004 127.371 11.8394 10.8645 -4.28094e-007 -147.164 -2.96966 -172.535 9.73751 3.21675 4.95996e-009 -2.85748 -5.04296e-007 9.89353e-006 2.55462 -1.10588 -0.153761 4.77834 -2.94618 -1.72235 6.93465 -0.75179 -1.15919e-009 -134.312 59.9475 86.9122 13.0966 -7.6294e-006 2.13163e-014 42.5863 -72.2083 78.6456 25.6158 0 2.38419e-007 -6.59263e-008 1.08709e-006 -6.07726e-008 
-111.693 47.7395 25.8068 117.027 -57.1493 -158.877 -3.8147e-006 4.76837e-007 0 -91.2712 21.7534 -70.2731 -18.6385 -9.591 -4.76837e-007 -56.6809 1.44399 162.874 20.9743 7.6294e-006 -0.00129557 -36.529 24.9254 19.3436 20.3015 -7.62938e-006 -0.000929833 -49.9806 14.6007 10.2379 21.6394 1.69571e-011 -0.000833511 -61.7486 6.49772 27.8658 19.6443 7.62039 7.0294 47.9527 -15.7618 10.9979 -14.5293 15.6836 -23.8587 -124.941 -16.0319 -161.091 34.2647 -4.26326e-014 -7.10543e-015 -125.458 -5.38887e-006 8.2419e-006 20.4429 -2.66454e-013 -3.8147e-006 145.778 -6.98436e-007 -1.85917e-007 16.5673 -7.62939e-006 5.72205e-006 -49.2269 5.4419 6.63906 9.18785 6.94839 5.72987e-008 99.0475 -3.45527 0.131525 1.01907 -2.38419e-007 3.8147e-006 1.25621e-007 -3.94858e-009 5.94037e-008 -20.8109 6.39191 8.45505 -163.941 8.9118 -149.067 34.2647 4.76837e-007 3.8147e-006 -122.681 -6.70752e-006 9.22886e-006 20.4429 1.90735e-006 -3.8147e-006 136.752 -7.95366e-006 -6.81033e-006 16.5673 1.90735e-006 3.8147e-006 -58.5182 14.7054 10.9823 9.18784 6.9484 -3.93573e-006 90.0057 -0.664349 5.52966e-005 1.01906 2.38418e-007 3.8147e-006 -179.96 -2.10816e-005 -1.08932e-005 39.3376 -0.0241814 -0.000750626 0.708111 1.31987 4.42779 34.2892 -15.5917 5.03773e-005 23.9154 4.56398 -12.4942 -21.591 -4.56642 -1.20441 149.225 -34.0162 117.162 17.444 3.8147e-006 8.45546e-013 66.2014 68.8185 -123.028 30.6251 -2.20269e-013 1.90735e-006 -75.5166 2.1463e-006 1.15015e-005 31.2039 5.15145e-014 -1.77636e-014 -152.781 59.9502 -73.4959 22.1039 0.255855 -0.379039 0.433888 -4.27379 18.221 12.0552 2.13164e-014 1.66893e-006 179.96 1.68577e-005 -2.24534e-005 -18.9198 -3.58057 10.8495 -178.638 68.7048 -125.925 17.4439 -7.6294e-006 3.8147e-006 90.0737 -55.0607 82.3985 30.6251 -4.76838e-007 -2.44249e-015 -132.511 1.20781e-005 -1.15081e-005 31.2039 -3.8147e-006 9.992e-015 54.8094 -75.1534 -87.0813 22.1039 0.255854 0.379024 2.3767 3.59518 -36.6297 12.0552 -4.42314e-013 3.81469e-006 -1.6142e-007 1.03261e-005 1.04412e-005 14.9354 -0.0106506 0.000170231 -29.1992 3.05497 15.2486 14.3578 0.505471 -6.51351e-009 -26.2342 4.46184 1.39341 3.76991 -2.35629 12.3444 -168.021 7.52862 -50.1232 3.76994 -2.35623 -12.3442 13.372 21.5533 126.629 11.8394 10.8645 -5.06424e-007 -147.729 -3.0048 -173.137 9.73751 3.21675 5.5389e-010 -2.85748 -5.60663e-007 9.88962e-006 2.55462 -1.10588 -0.153761 4.77834 -2.94618 -1.72235 6.93465 -0.75179 -1.29436e-010 -128.934 61.8437 87.5937 13.0966 -7.6294e-006 -1.42109e-014 14.6131 -77.2489 56.5913 25.6158 1.06582e-014 2.38419e-007 -6.59263e-008 1.08709e-006 -6.07726e-008 
